<svg width="395" height="343" viewBox="0 0 395 343" fill="none" xmlns="http://www.w3.org/2000/svg">
<rect width="380" height="287" fill="#FAE9E0"/>
<path d="M281.835 278.785C224.235 318.785 158.502 294.452 132.835 277.285H132.335C132.002 276.618 131.235 274.885 130.835 273.285C130.564 272.199 128.129 269.825 125.81 267.785M281.835 278.785C259.335 293.285 198.535 312.985 135.335 275.785M281.835 278.785C226.235 316.385 161.002 296.785 135.335 282.285V275.785M281.835 278.785L281.335 278.285M135.335 275.785L131.835 272.785L127.835 268.285L125.81 267.785M321.335 272.285L315.835 276.285C313.835 271.085 291.669 275.118 280.835 277.785L281.335 278.285M321.335 272.285C326.669 273.118 336.035 276.485 330.835 283.285C324.502 288.285 304.735 299.185 276.335 302.785C251.169 307.118 189.935 313.185 146.335 302.785C107.335 295.785 47.4355 278.685 119.835 266.285L122.835 265.285M321.335 272.285C311.735 269.485 300.002 264.118 295.335 261.785M122.835 265.285C123.639 265.928 124.711 266.819 125.81 267.785M122.835 265.285L114.579 253.785M108.835 245.785C63.5021 250.118 -11.1646 268.785 52.8354 308.785C89.6688 329.118 196.835 360.685 330.835 324.285C381.669 306.118 448.535 264.885 309.335 245.285M108.835 245.785C78.8354 195.385 77.6688 135.785 80.8354 112.285M108.835 245.785L114.579 253.785M309.335 245.285L321.835 217.785M309.335 245.285L302.335 253.535M281.335 278.285L295.335 261.785M295.335 261.785L302.335 253.535M315.835 272.785L296.335 264.785L288.835 273.785L304.835 270.785L306.835 271.785H308.335L297.335 267.785L295.335 268.785L293.835 270.785L297.335 270.285M321.835 217.785C351.002 214.618 405.435 197.585 389.835 154.785C385.502 144.952 369.635 127.985 340.835 138.785M321.835 217.785C323.365 215.155 324.82 211.93 326.196 208.285M340.835 138.785C340.497 141.776 340.046 145.338 339.486 149.285M340.835 138.785L339.486 149.285M326.196 208.285C326.755 206.802 327.302 205.249 327.835 203.638M326.196 208.285C327.447 208.062 328.961 207.763 330.607 207.401M327.835 203.638L350.835 200.285C351.169 198.785 351.235 196.685 348.835 200.285C346.894 203.197 337.566 205.868 330.607 207.401M327.835 203.638C328.197 202.546 328.552 201.427 328.901 200.285M328.901 200.285L330.607 207.401M328.901 200.285C333.027 186.792 336.268 170.103 338.439 156.285M328.901 200.285C337.185 199.999 350.208 197.585 359.835 191.077M338.439 156.285C364.123 150.685 371.738 162.285 372.335 168.785C372.335 174.797 370.519 179.742 367.568 183.785M338.439 156.285C338.822 153.852 339.171 151.507 339.486 149.285M339.486 149.285C344.769 148.285 355.635 146.585 356.835 147.785M339.486 149.285V112.285M367.568 183.785C370.574 186.952 373.463 192.685 360.962 190.285M367.568 183.785C366.741 184.918 365.825 185.98 364.835 186.975M360.962 190.285C362.343 189.275 363.643 188.174 364.835 186.975M360.962 190.285C360.592 190.555 360.216 190.819 359.835 191.077M364.835 186.975C367.169 189.106 369.435 192.91 359.835 191.077M339.486 112.285C313.207 141.885 240.103 146.285 206.835 144.785C178.169 146.452 112.835 142.285 80.8354 112.285M339.486 112.285C339.989 109.277 339.043 105.601 335.82 101.785M80.8354 112.285C79.603 109.441 80.2688 105.723 84.4112 101.785M90.8354 163.285C99.6688 200.785 126.135 276.285 161.335 278.285M335.82 101.785C325.47 89.5313 291.631 75.8449 206.835 78.285C127.263 80.5749 94.8333 91.877 84.4112 101.785M335.82 101.785C334.346 103.7 332.157 105.913 329.211 108.285M84.4112 101.785C85.5882 103.896 87.067 105.894 88.8105 107.785M88.8105 107.785C95.6522 102.452 112.135 92.285 123.335 94.285M88.8105 107.785C95.8334 115.403 107.151 121.281 120.335 125.766M172.335 86.785C180.335 85.785 197.735 83.985 203.335 84.785M214.835 84.785C224.835 84.6184 245.035 84.785 245.835 86.785M120.335 125.766C148.54 135.36 185.291 138.575 206.835 138.785C248.604 138.785 279.223 132.128 300.335 124.001M120.335 125.766C143.002 116.75 210.735 103.774 300.335 124.001M300.335 124.001C313.551 118.914 323.042 113.251 329.211 108.285M302.335 253.535C316.169 253.618 344.835 255.185 348.835 260.785M114.579 253.785C97.8312 254.118 63.4354 256.885 59.8354 265.285M83.3354 291.285C96.3354 300.118 131.935 317.385 170.335 315.785M256.335 313.285C273.669 311.285 310.335 305.785 318.335 299.785M292.835 93.285C303.586 95.285 325.912 101.085 329.211 108.285M324.835 140.785C325.002 160.452 318.435 211.385 290.835 257.785M276.335 272.785L284.335 264.285M128.835 272.285L112.335 276.785C111.835 277.452 111.235 278.685 112.835 278.285C114.435 277.885 124.835 275.452 129.835 274.285L128.835 272.285Z" stroke="#AF9283" stroke-width="4"/>
</svg>
